<?xml version="1.0" encoding="UTF-8"?>
<svg id="Layer_2" data-name="Layer 2" xmlns="http://www.w3.org/2000/svg" viewBox="0 0 48.69 48.76">
  <defs>
    <style>
      .cls-1 {
        fill: #3fa9f5;
      }
    </style>
  </defs>
  <g id="p1_-_header" data-name="p1 - header">
    <g>
      <circle class="cls-1" cx="24.39" cy="24.35" r=".14"/>
      <circle class="cls-1" cx="24.39" cy="24.35" r="4.65"/>
      <path class="cls-1" d="M24.39,4.66C13.51,4.66,4.69,13.47,4.69,24.35s8.82,19.69,19.69,19.69,19.69-8.82,19.69-19.69S35.26,4.66,24.39,4.66Zm0,31.87c-6.72,0-12.17-5.45-12.17-12.17s5.45-12.17,12.17-12.17,12.17,5.45,12.17,12.17-5.45,12.17-12.17,12.17Z"/>
      <circle class="cls-1" cx="44.04" cy="4.72" r="4.65"/>
      <circle class="cls-1" cx="44.04" cy="44.11" r="4.65"/>
      <circle class="cls-1" cx="4.65" cy="44.11" r="4.65"/>
      <circle class="cls-1" cx="4.65" cy="4.72" r="4.65"/>
      <circle class="cls-1" cx="44.04" cy="24.24" r="4.64"/>
      <circle class="cls-1" cx="24.25" cy="44" r="4.64"/>
      <circle class="cls-1" cx="4.66" cy="24.32" r="4.64"/>
      <circle class="cls-1" cx="24.52" cy="4.64" r="4.64"/>
    </g>
  </g>
</svg>
