<?xml version="1.0" encoding="UTF-8"?>
<svg id="Layer_2" data-name="Layer 2" xmlns="http://www.w3.org/2000/svg" viewBox="0 0 68.42 68.42">
  <defs>
    <style>
      .cls-1 {
        fill: none;
        stroke: #0d72b9;
        stroke-linecap: round;
        stroke-linejoin: round;
        stroke-width: 5px;
      }
    </style>
  </defs>
  <g id="p2_-_logos" data-name="p2 - logos">
    <g>
      <path class="cls-1" d="M65.92,34.09v.12c0,8.32-3.2,15.89-8.44,21.54-4.82,5.21-11.38,8.8-18.75,9.85-1.48,.21-2.99,.32-4.52,.32-1.36,0-2.69-.08-4-.25-7.58-.95-14.33-4.58-19.27-9.92-5.24-5.66-8.44-13.22-8.44-21.54v-.12c.03-8.27,3.23-15.79,8.44-21.42C15.88,7.34,22.62,3.71,30.21,2.75c1.31-.17,2.65-.25,4-.25,1.53,0,3.05,.11,4.52,.32,7.37,1.05,13.92,4.64,18.74,9.85,5.21,5.63,8.41,13.15,8.44,21.42Z"/>
      <path class="cls-1" d="M57.48,12.67c-2.61,2.82-5.72,5.16-9.2,6.88-4.24,2.11-9.01,3.29-14.07,3.29s-9.54-1.11-13.68-3.09c-3.64-1.74-6.89-4.15-9.59-7.08C15.88,7.34,22.62,3.71,30.21,2.75c1.31-.17,2.65-.25,4-.25,1.53,0,3.05,.11,4.52,.32,7.37,1.05,13.92,4.64,18.74,9.85Z"/>
      <line class="cls-1" x1="2.5" y1="34.09" x2="65.92" y2="34.09"/>
      <path class="cls-1" d="M57.48,55.75c-4.82,5.21-11.38,8.8-18.75,9.85-1.48,.21-2.99,.32-4.52,.32-1.36,0-2.69-.08-4-.25-7.58-.95-14.33-4.58-19.27-9.92,2.71-2.93,5.96-5.34,9.6-7.08,4.14-1.98,8.78-3.09,13.68-3.09s9.83,1.18,14.07,3.29c3.48,1.72,6.6,4.07,9.2,6.89Z"/>
      <path class="cls-1" d="M65.92,34.09v.12c0,8.32-3.2,15.89-8.44,21.54-4.82,5.21-11.38,8.8-18.75,9.85-1.48,.21-2.99,.32-4.52,.32-1.36,0-2.69-.08-4-.25-4.32-4.88-7.64-10.65-9.67-17-1.45-4.56-2.24-9.42-2.24-14.46v-.12c.01-5,.8-9.82,2.24-14.34,2.03-6.35,5.35-12.12,9.67-17,1.31-.17,2.65-.25,4-.25,1.53,0,3.05,.11,4.52,.32,7.37,1.05,13.92,4.64,18.74,9.85,5.21,5.63,8.41,13.15,8.44,21.42Z"/>
      <path class="cls-1" d="M50.58,34.09v.12c0,5.11-.81,10.04-2.3,14.66-2.02,6.25-5.31,11.92-9.55,16.74-1.48,.21-2.99,.32-4.52,.32-1.36,0-2.69-.08-4-.25-7.58-.95-14.33-4.58-19.27-9.92-5.24-5.66-8.44-13.22-8.44-21.54v-.12c.03-8.27,3.23-15.79,8.44-21.42C15.88,7.34,22.62,3.71,30.21,2.75c1.31-.17,2.65-.25,4-.25,1.53,0,3.05,.11,4.52,.32,4.24,4.81,7.52,10.49,9.54,16.73,1.49,4.58,2.29,9.46,2.31,14.54Z"/>
    </g>
  </g>
</svg>