<?xml version="1.0" encoding="UTF-8"?>
<svg id="Layer_2" data-name="Layer 2" xmlns="http://www.w3.org/2000/svg" viewBox="0 0 72.89 59.78">
  <defs>
    <style>
      .cls-1 {
        stroke: #0d72b9;
      }

      .cls-1, .cls-2, .cls-3 {
        fill: none;
        stroke-linecap: round;
        stroke-linejoin: round;
        stroke-width: 2px;
      }

      .cls-2 {
        stroke: #2e368e;
      }

      .cls-3 {
        stroke: #54a3da;
      }
    </style>
  </defs>
  <g id="p2_-_logos" data-name="p2 - logos">
    <g>
      <g>
        <g>
          <path class="cls-3" d="M22.64,1.77c-1.46,1.25-2.72,2.69-3.69,4.26"/>
          <path class="cls-3" d="M48.38,3.26c1.93,1.32,3.54,3,4.65,4.91"/>
          <path class="cls-3" d="M21.49,10.39c1.07-3.74,4.13-6.7,8.04-8.62,4.76-2.22,10.71-2.37,15.45-.3"/>
          <path class="cls-3" d="M33.16,4.64c-3.56,1.18-6.39,3.77-7.59,6.92"/>
          <path class="cls-3" d="M50.55,16.48c.71-5.12-2.84-10.21-8.43-11.93-1.72-.53-3.57-.73-5.38-.61"/>
          <path class="cls-3" d="M29.64,12.74c1.02-2.67,3.8-4.67,7-5.06s6.58,.97,8.36,3.37c1.17,1.56,1.61,3.5,1.24,5.33"/>
          <path class="cls-3" d="M41.85,16.27c.99-2.58-1.75-5.32-4.82-4.86"/>
        </g>
        <g>
          <path class="cls-3" d="M44.94,19.74c-1.38,2.91-3.23,5.65-5.48,8.11"/>
          <path class="cls-3" d="M33.96,27.66c3.72-3.1,6.1-7.24,7.89-11.39"/>
          <path class="cls-3" d="M37.78,15.09c-1.97,3.85-4.17,7.55-7.63,10.6"/>
          <path class="cls-3" d="M26.94,23.18c3.1-2.61,5.31-5.72,6.77-9.26"/>
          <path class="cls-3" d="M27.58,16.57c-.87,1.3-1.91,2.53-3.16,3.57"/>
          <path class="cls-3" d="M29.64,12.74c-.16,.35-.32,.7-.49,1.05"/>
          <path class="cls-3" d="M22.27,16.62c1.46-1.48,2.58-3.21,3.29-5.06"/>
          <path class="cls-3" d="M21.49,10.39c-.31,.81-.73,1.6-1.24,2.33"/>
        </g>
      </g>
      <g>
        <g>
          <path class="cls-1" d="M3.69,33.51c-1.46,1.25-2.72,2.69-3.69,4.26"/>
          <path class="cls-1" d="M29.42,35c1.93,1.32,3.54,3,4.65,4.91"/>
          <path class="cls-1" d="M2.54,42.12c1.07-3.74,4.13-6.7,8.04-8.62,4.76-2.22,10.71-2.37,15.45-.3"/>
          <path class="cls-1" d="M14.2,36.37c-3.56,1.18-6.39,3.77-7.59,6.92"/>
          <path class="cls-1" d="M31.6,48.22c.71-5.12-2.84-10.21-8.43-11.93-1.72-.53-3.57-.73-5.38-.61"/>
          <path class="cls-1" d="M10.68,44.47c1.02-2.67,3.8-4.67,7-5.06,3.25-.39,6.58,.97,8.36,3.37,1.17,1.56,1.61,3.5,1.24,5.33"/>
          <path class="cls-1" d="M22.9,48c.99-2.58-1.75-5.32-4.82-4.86"/>
        </g>
        <g>
          <path class="cls-1" d="M25.99,51.48c-1.38,2.91-3.23,5.65-5.48,8.11"/>
          <path class="cls-1" d="M15.01,59.4c3.72-3.1,6.1-7.24,7.89-11.39"/>
          <path class="cls-1" d="M18.83,46.83c-1.97,3.85-4.17,7.55-7.63,10.6"/>
          <path class="cls-1" d="M7.99,54.92c3.1-2.61,5.31-5.72,6.77-9.26"/>
          <path class="cls-1" d="M8.62,48.3c-.87,1.3-1.91,2.53-3.16,3.57"/>
          <path class="cls-1" d="M10.68,44.47c-.16,.35-.32,.7-.49,1.05"/>
          <path class="cls-1" d="M3.32,48.36c1.46-1.48,2.58-3.21,3.29-5.06"/>
          <path class="cls-1" d="M2.54,42.12c-.31,.81-.73,1.6-1.24,2.33"/>
        </g>
      </g>
      <g>
        <g>
          <path class="cls-2" d="M42.5,33.7c-1.46,1.25-2.72,2.69-3.69,4.26"/>
          <path class="cls-2" d="M68.24,35.2c1.93,1.32,3.54,3,4.65,4.91"/>
          <path class="cls-2" d="M41.35,42.32c1.07-3.74,4.13-6.7,8.04-8.62,4.76-2.22,10.71-2.37,15.45-.3"/>
          <path class="cls-2" d="M53.02,36.57c-3.56,1.18-6.39,3.77-7.59,6.92"/>
          <path class="cls-2" d="M70.41,48.41c.71-5.12-2.84-10.21-8.43-11.93-1.72-.53-3.57-.73-5.38-.61"/>
          <path class="cls-2" d="M49.5,44.67c1.02-2.67,3.8-4.67,7-5.06s6.58,.97,8.36,3.37c1.17,1.56,1.61,3.5,1.24,5.33"/>
          <path class="cls-2" d="M61.71,48.2c.99-2.58-1.75-5.32-4.82-4.86"/>
        </g>
        <g>
          <path class="cls-2" d="M64.8,51.68c-1.38,2.91-3.23,5.65-5.48,8.11"/>
          <path class="cls-2" d="M53.82,59.59c3.72-3.1,6.1-7.24,7.89-11.39"/>
          <path class="cls-2" d="M57.64,47.03c-1.97,3.85-4.17,7.55-7.63,10.6"/>
          <path class="cls-2" d="M46.8,55.11c3.1-2.61,5.31-5.72,6.77-9.26"/>
          <path class="cls-2" d="M47.44,48.5c-.87,1.3-1.91,2.53-3.16,3.57"/>
          <path class="cls-2" d="M49.5,44.67c-.16,.35-.32,.7-.49,1.05"/>
          <path class="cls-2" d="M42.13,48.56c1.46-1.48,2.58-3.21,3.29-5.06"/>
          <path class="cls-2" d="M41.35,42.32c-.31,.81-.73,1.6-1.24,2.33"/>
        </g>
      </g>
    </g>
  </g>
</svg>