<?xml version="1.0" encoding="UTF-8"?>
<svg id="Layer_2" data-name="Layer 2" xmlns="http://www.w3.org/2000/svg" viewBox="0 0 85.89 61.27">
  <defs>
    <style>
      .cls-1 {
        fill: #0d72b9;
      }

      .cls-2 {
        fill: #29a9e1;
      }

      .cls-3 {
        fill: #272361;
      }
    </style>
  </defs>
  <g id="p2_-_logos" data-name="p2 - logos">
    <g>
      <path class="cls-3" d="M5.42,38.16C2.03,40.36,.07,42.89,0,45.59c0,.05,0,.09,0,.14,0,.1,0,.2,0,.29,.43,8.45,19.42,15.24,42.79,15.24s42.36-6.8,42.79-15.24c0-.09,0-.19,0-.29,0-.15,0-.3-.02-.46-.2-2.5-2.03-4.85-5.11-6.92,0,0,0,0,0,0"/>
      <path class="cls-1" d="M80.39,23.16c3.31,2.13,5.27,4.56,5.48,7.16,.01,.15,.02,.3,.02,.46,0,.1,0,.2,0,.29-.03,.54-.13,1.07-.3,1.59-.68,2.04-2.46,3.96-5.11,5.68h0c-5.27,3.42-13.98,6.04-24.43,7.24-4.09,.47-8.44,.73-12.95,.73s-8.86-.25-12.95-.73c-10.65-1.22-19.49-3.92-24.72-7.43-3.15-2.11-5-4.52-5.12-7.08,0-.09,0-.19,0-.29,0-.05,0-.09,0-.14,0-.1,0-.2,.01-.29,.2-2.61,2.16-5.05,5.48-7.19"/>
      <path class="cls-2" d="M85.89,15.54c0,.1,0,.2,0,.29,0,.04,0,.09-.01,.13-.19,2.61-2.16,5.07-5.48,7.2-5.27,3.39-13.95,5.99-24.35,7.19-.94,.11-1.91,.21-2.88,.29-.02,0-.05,0-.08,0h0c-3.21,.28-6.55,.43-9.99,.43s-6.84-.15-10.07-.43l-.21-.02h-.01c-.9-.08-1.79-.17-2.66-.28-10.4-1.2-19.08-3.79-24.35-7.19C2.42,20.99,.43,18.49,.3,15.83c0-.09,0-.19,0-.29,0-.05,0-.09,0-.14C.49,7.62,16.4,1.21,37.05,.15c1.98-.1,3.99-.15,6.05-.15s4.07,.05,6.04,.15c20.37,1.04,36.13,7.29,36.74,14.93,.01,.15,.02,.3,.02,.46Z"/>
    </g>
  </g>
</svg>